<svg width="23" height="24" viewBox="0 0 23 24" fill="none" xmlns="http://www.w3.org/2000/svg">
<path d="M10 12.7666C9.65833 12.7666 9.375 12.4833 9.375 12.1416V9.36664C9.375 9.02497 9.65833 8.74164 10 8.74164C10.3417 8.74164 10.625 9.02497 10.625 9.36664V12.1416C10.625 12.4916 10.3417 12.7666 10 12.7666Z" fill="#5C5959"/>
<path d="M10.0167 20.9583C7.86666 20.9583 5.72499 20.6167 3.68332 19.9333C2.92499 19.6833 2.34999 19.1417 2.09999 18.4583C1.84999 17.775 1.93332 16.9917 2.34166 16.3083L3.39999 14.5417C3.63332 14.15 3.84166 13.4167 3.84166 12.9583V11.2083C3.84166 7.79999 6.60832 5.03333 10.0167 5.03333C13.425 5.03333 16.1917 7.79999 16.1917 11.2083V12.9583C16.1917 13.4083 16.4 14.15 16.6333 14.5417L17.6917 16.3083C18.0833 16.9583 18.15 17.7333 17.8917 18.4417C17.6333 19.15 17.0667 19.6917 16.35 19.9333C14.3083 20.625 12.1667 20.9583 10.0167 20.9583ZM10.0167 6.29166C7.29999 6.29166 5.09166 8.49999 5.09166 11.2167V12.9667C5.09166 13.6417 4.82499 14.6167 4.47499 15.1917L3.41666 16.9667C3.19999 17.325 3.14999 17.7083 3.27499 18.0417C3.39999 18.375 3.68332 18.625 4.08332 18.7583C7.91666 20.0333 12.1333 20.0333 15.9667 18.7583C16.325 18.6417 16.6 18.375 16.725 18.025C16.8583 17.675 16.8167 17.2917 16.625 16.9667L15.5667 15.2C15.2167 14.625 14.95 13.65 14.95 12.975V11.225C14.9417 8.49999 12.7333 6.29166 10.0167 6.29166Z" fill="#5C5959"/>
<path d="M9.99998 23.0833C9.10831 23.0833 8.23331 22.7167 7.59998 22.0833C6.96664 21.45 6.59998 20.575 6.59998 19.6833H7.84998C7.84998 20.25 8.08331 20.8 8.48331 21.2C8.88331 21.6 9.43331 21.8333 9.99998 21.8333C11.1833 21.8333 12.15 20.8667 12.15 19.6833H13.4C13.4 21.5583 11.875 23.0833 9.99998 23.0833Z" fill="#5C5959"/>
<circle cx="17" cy="6" r="5.5" fill="#E51837" stroke="#F4F4F4"/>
</svg>
