<svg width="20" height="20" viewBox="0 0 20 20" fill="none" xmlns="http://www.w3.org/2000/svg">
<path d="M8.29147 18.9583H6.48313C6.15813 18.9583 5.50814 18.8583 5.13314 18.4916L3.71647 17.4L4.48313 16.4083L5.95814 17.55C6.06647 17.6417 6.29147 17.7083 6.48313 17.7083H8.29147C8.5998 17.7083 8.9498 17.45 9.01647 17.1833L10.1748 13.6583C10.2081 13.575 10.2331 13.45 10.1748 13.3583C10.1248 13.2833 10.0081 13.2417 9.86647 13.2417H7.95814C7.63314 13.2417 7.33314 13.1 7.11647 12.8584C6.8998 12.6084 6.80814 12.2916 6.85814 11.95L7.0998 10.4167C7.13313 10.275 7.03313 10.0999 6.8998 10.0583C6.79147 10.0166 6.60813 10.0917 6.56647 10.15L4.60813 13.0584L3.56647 12.3583L5.51647 9.44996C5.88314 8.89996 6.68314 8.65001 7.2998 8.88335C8.00814 9.11668 8.4748 9.91668 8.30814 10.65L8.0998 11.9833H9.84147C10.3998 11.9833 10.8831 12.2167 11.1748 12.6333C11.4581 13.0333 11.5165 13.5583 11.3331 14.0583L10.1915 17.525C10.0248 18.3083 9.1748 18.9583 8.29147 18.9583Z" fill="#9B9697"/>
<path d="M3.0998 18.4333H2.6248C1.3248 18.4333 1.0498 17.6 1.0498 16.9V12.2334C1.0498 11.5334 1.3248 10.7 2.6248 10.7H3.0998C4.3998 10.7 4.6748 11.5334 4.6748 12.2334V16.9C4.6748 17.6 4.3998 18.4333 3.0998 18.4333ZM2.3248 17.1499C2.33314 17.1499 2.41647 17.1833 2.61647 17.1833H3.09147C3.30814 17.1833 3.38314 17.1499 3.3998 17.1416C3.3998 17.1333 3.4248 17.075 3.4248 16.9V12.2334C3.4248 12.0584 3.3998 11.9917 3.39147 11.9833C3.39147 12 3.30814 11.95 3.0998 11.95H2.6248C2.40814 11.95 2.33314 11.9833 2.31647 11.9917C2.31647 12 2.29147 12.0584 2.29147 12.2334V16.9C2.29147 17.075 2.31647 17.1416 2.3248 17.1499Z" fill="#9B9697"/>
<path d="M13.1752 11.2C13.0085 11.2 12.8418 11.175 12.6835 11.1167C11.9752 10.8833 11.5085 10.0833 11.6752 9.35L11.8835 8.01668H10.1418C9.58349 8.01668 9.10016 7.78333 8.80849 7.36666C8.52516 6.96666 8.46683 6.44169 8.65016 5.94169L9.79183 2.475C9.98349 1.69166 10.8418 1.04169 11.7168 1.04169H13.5252C13.8502 1.04169 14.5002 1.14174 14.8752 1.5084L16.2918 2.60002L15.5252 3.59174L14.0502 2.44997C13.9418 2.3583 13.7168 2.29169 13.5252 2.29169H11.7168C11.4085 2.29169 11.0585 2.55002 10.9918 2.81669L9.8335 6.34167C9.80016 6.42501 9.77516 6.55 9.8335 6.64166C9.8835 6.71666 10.0002 6.75834 10.1418 6.75834H12.0502C12.3752 6.75834 12.6752 6.89998 12.8918 7.14164C13.1085 7.39164 13.2002 7.70838 13.1502 8.05005L12.9085 9.58335C12.8752 9.72502 12.9752 9.90006 13.1085 9.94173C13.2252 9.9834 13.4002 9.91664 13.4418 9.84998L15.4002 6.94165L16.4418 7.64172L14.4918 10.55C14.1918 10.95 13.6752 11.2 13.1752 11.2Z" fill="#9B9697"/>
<path d="M17.3833 9.30001H16.9083C15.6083 9.30001 15.3333 8.4666 15.3333 7.7666V3.09996C15.3333 2.39996 15.6083 1.56665 16.9083 1.56665H17.3833C18.6833 1.56665 18.9583 2.39996 18.9583 3.09996V7.7666C18.9583 8.4666 18.6833 9.30001 17.3833 9.30001ZM16.6083 8.01664C16.6166 8.01664 16.6999 8.05001 16.8999 8.05001H17.3749C17.5916 8.05001 17.6666 8.01663 17.6833 8.0083C17.6833 7.99997 17.7083 7.9416 17.7083 7.7666V3.09996C17.7083 2.92496 17.6832 2.86668 17.6749 2.85002C17.6832 2.88335 17.5916 2.81665 17.3833 2.81665H16.9083C16.6916 2.81665 16.6166 2.85002 16.5999 2.85836C16.5999 2.86669 16.5749 2.92496 16.5749 3.09996V7.7666C16.5749 7.9416 16.5999 7.99998 16.6083 8.01664Z" fill="#9B9697"/>
</svg>
