<svg width="20" height="20" viewBox="0 0 20 20" fill="none" xmlns="http://www.w3.org/2000/svg">
<path d="M15.8333 7.29169C14.1083 7.29169 12.7083 5.89169 12.7083 4.16669C12.7083 2.44169 14.1083 1.04169 15.8333 1.04169C17.5583 1.04169 18.9583 2.44169 18.9583 4.16669C18.9583 5.89169 17.5583 7.29169 15.8333 7.29169ZM15.8333 2.29169C14.8 2.29169 13.9583 3.13335 13.9583 4.16669C13.9583 5.20002 14.8 6.04169 15.8333 6.04169C16.8666 6.04169 17.7083 5.20002 17.7083 4.16669C17.7083 3.13335 16.8666 2.29169 15.8333 2.29169Z" fill="#9B9697"/>
<path d="M12.5 18.9584H7.50002C2.97502 18.9584 1.04169 17.025 1.04169 12.5V7.50002C1.04169 2.97502 2.97502 1.04169 7.50002 1.04169H11.6667C12.0084 1.04169 12.2917 1.32502 12.2917 1.66669C12.2917 2.00835 12.0084 2.29169 11.6667 2.29169H7.50002C3.65835 2.29169 2.29169 3.65835 2.29169 7.50002V12.5C2.29169 16.3417 3.65835 17.7084 7.50002 17.7084H12.5C16.3417 17.7084 17.7084 16.3417 17.7084 12.5V8.33335C17.7084 7.99169 17.9917 7.70835 18.3334 7.70835C18.675 7.70835 18.9584 7.99169 18.9584 8.33335V12.5C18.9584 17.025 17.025 18.9584 12.5 18.9584Z" fill="#9B9697"/>
</svg>
