<svg width="20" height="20" viewBox="0 0 20 20" fill="none" xmlns="http://www.w3.org/2000/svg">
<path d="M9.99985 11.0833C9.89152 11.0833 9.78318 11.0583 9.68318 11L2.32486 6.74169C2.02486 6.56669 1.92484 6.18333 2.09984 5.88333C2.27484 5.58333 2.64984 5.48331 2.95817 5.65831L9.99985 9.73332L16.9998 5.68334C17.2998 5.50834 17.6832 5.61669 17.8582 5.90835C18.0332 6.20835 17.9249 6.59166 17.6332 6.76666L10.3249 11C10.2165 11.05 10.1082 11.0833 9.99985 11.0833Z" fill="#9B9697"/>
<path d="M10 18.6334C9.65833 18.6334 9.375 18.35 9.375 18.0084V10.45C9.375 10.1083 9.65833 9.82501 10 9.82501C10.3417 9.82501 10.625 10.1083 10.625 10.45V18.0084C10.625 18.35 10.3417 18.6334 10 18.6334Z" fill="#9B9697"/>
<path d="M10.0001 18.9583C9.26675 18.9583 8.54175 18.8 7.96675 18.4833L3.51675 16.0084C2.30842 15.3417 1.36676 13.7334 1.36676 12.35V7.64167C1.36676 6.25833 2.30842 4.65837 3.51675 3.98337L7.96675 1.51669C9.10841 0.883354 10.8917 0.883354 12.0334 1.51669L16.4834 3.99166C17.6917 4.65833 18.6334 6.26667 18.6334 7.65001V12.3584C18.6334 13.7417 17.6917 15.3417 16.4834 16.0167L12.0334 18.4833C11.4584 18.8 10.7334 18.9583 10.0001 18.9583ZM10.0001 2.29168C9.47508 2.29168 8.95842 2.40002 8.57509 2.60835L4.12509 5.08333C3.32509 5.53333 2.61676 6.72501 2.61676 7.65001V12.3584C2.61676 13.275 3.32509 14.475 4.12509 14.925L8.57509 17.4C9.33342 17.825 10.6667 17.825 11.4251 17.4L15.8751 14.925C16.6751 14.475 17.3834 13.2834 17.3834 12.3584V7.65001C17.3834 6.73334 16.6751 5.53333 15.8751 5.08333L11.4251 2.60835C11.0417 2.40002 10.5251 2.29168 10.0001 2.29168Z" fill="#9B9697"/>
<path d="M14.1668 11.6584C13.8251 11.6584 13.5418 11.3751 13.5418 11.0334V8.35008L5.9418 3.96674C5.6418 3.79174 5.54178 3.40839 5.71678 3.11673C5.89178 2.81673 6.2668 2.71671 6.5668 2.89171L14.4751 7.45841C14.6668 7.56674 14.7918 7.77505 14.7918 8.00005V11.0501C14.7918 11.3751 14.5085 11.6584 14.1668 11.6584Z" fill="#9B9697"/>
</svg>
