<svg width="20" height="20" viewBox="0 0 20 20" fill="none" xmlns="http://www.w3.org/2000/svg">
<path d="M7.50831 17.7083C7.34997 17.7083 7.19164 17.65 7.06664 17.525L2.89164 13.35C2.64997 13.1083 2.64997 12.7083 2.89164 12.4667C3.1333 12.225 3.53331 12.225 3.77497 12.4667L7.94997 16.6417C8.19164 16.8833 8.19164 17.2833 7.94997 17.525C7.82497 17.6417 7.66664 17.7083 7.50831 17.7083Z" fill="#9B9697"/>
<path d="M7.50836 17.7084C7.1667 17.7084 6.88336 17.425 6.88336 17.0834V2.91669C6.88336 2.57502 7.1667 2.29169 7.50836 2.29169C7.85003 2.29169 8.13336 2.57502 8.13336 2.91669V17.0834C8.13336 17.425 7.85003 17.7084 7.50836 17.7084Z" fill="#9B9697"/>
<path d="M16.675 7.71668C16.5167 7.71668 16.3583 7.65834 16.2333 7.53334L12.0583 3.35835C11.8167 3.11668 11.8167 2.71668 12.0583 2.47501C12.3 2.23335 12.7 2.23335 12.9417 2.47501L17.1167 6.65001C17.3583 6.89168 17.3583 7.29168 17.1167 7.53334C16.9917 7.65834 16.8333 7.71668 16.675 7.71668Z" fill="#9B9697"/>
<path d="M12.4916 17.7084C12.15 17.7084 11.8666 17.425 11.8666 17.0834V2.91669C11.8666 2.57502 12.15 2.29169 12.4916 2.29169C12.8333 2.29169 13.1166 2.57502 13.1166 2.91669V17.0834C13.1166 17.425 12.8416 17.7084 12.4916 17.7084Z" fill="#9B9697"/>
</svg>
